/* XPM */
static char *_610687781382[] = {
/* columns rows colors chars-per-pixel */
"64 64 196 2 ",
"   c #0A0C0D",
".  c #0E1013",
"X  c #121314",
"o  c #1D1D1D",
"O  c #16181A",
"+  c #0A0D12",
"@  c #2E1D09",
"#  c #241707",
"$  c #201F1F",
"%  c #38240A",
"&  c #1D1F21",
"*  c #222221",
"=  c #2C2C2C",
"-  c #2F302F",
";  c #343433",
":  c #3A3A39",
">  c #40280C",
",  c #533715",
"<  c #4A3216",
"1  c #6B3E07",
"2  c #613F16",
"3  c #483927",
"4  c #533D22",
"5  c #6B410E",
"6  c #744205",
"7  c #71440D",
"8  c #7D4704",
"9  c #664011",
"0  c #6E4512",
"q  c #714612",
"w  c #764A14",
"e  c #7A4D15",
"r  c #7E5016",
"t  c #584A3A",
"y  c #6A4C29",
"u  c #7F592A",
"i  c #795529",
"p  c #644F36",
"a  c #6A553C",
"s  c #775934",
"d  c #7A5B34",
"f  c #7A5E3B",
"g  c #3E454F",
"h  c #3E4550",
"j  c #454442",
"k  c #4C4B49",
"l  c #44484E",
"z  c #564C40",
"x  c #4C4E52",
"c  c #4D5156",
"v  c #505050",
"b  c #635646",
"n  c #6B5B46",
"m  c #6C5E4B",
"M  c #64594C",
"N  c #735C41",
"B  c #705E48",
"V  c #625A51",
"C  c #685E53",
"Z  c #605F5C",
"A  c #796246",
"S  c #76634A",
"D  c #6D6356",
"F  c #736453",
"G  c #555B65",
"H  c #595F66",
"J  c #575F69",
"K  c #5B6067",
"L  c #5A626B",
"P  c #57606A",
"I  c #5A6470",
"U  c #62666B",
"Y  c #66696D",
"T  c #666564",
"R  c #656A71",
"E  c gray45",
"W  c #824A05",
"Q  c #824C0B",
"!  c #86510F",
"~  c #95560A",
"^  c #97590C",
"/  c #9C5A0B",
"(  c #955507",
")  c #814E11",
"_  c #835114",
"`  c #8C5614",
"'  c #8F5916",
"]  c #855418",
"[  c #885619",
"{  c #8D591A",
"}  c #945A14",
"|  c #925C1A",
" . c #985B12",
".. c #A85E07",
"X. c #A55F0A",
"o. c #9E6016",
"O. c #99611C",
"+. c #A6610C",
"@. c #AC630B",
"#. c #B0650B",
"$. c #B76A0D",
"%. c #A46213",
"&. c #A96514",
"*. c #AD6915",
"=. c #A5681C",
"-. c #A8691C",
";. c #BD6F12",
":. c #B7711B",
">. c #B9721D",
",. c #BB7015",
"<. c #835B2B",
"1. c #8A5F2D",
"2. c #815725",
"3. c #825F35",
"4. c #94642C",
"5. c #8F6738",
"6. c #BF7821",
"7. c #A26E30",
"8. c #A57031",
"9. c #A97232",
"0. c #B17A38",
"q. c #C0700F",
"w. c #C37414",
"e. c #C3771B",
"r. c #C7791C",
"t. c #CB7C1B",
"y. c #CD7A16",
"u. c #C47B22",
"i. c #CA7E23",
"p. c #896A44",
"a. c #967043",
"s. c #89745A",
"d. c #9B7D5A",
"f. c #A47945",
"g. c #A47946",
"h. c #917E69",
"j. c #8D7962",
"k. c #BB823E",
"l. c #D2811D",
"z. c #CE8124",
"x. c #A1815D",
"c. c #B88A53",
"v. c #9D866A",
"b. c #978168",
"n. c #958470",
"m. c #94897C",
"M. c #9B8D7C",
"N. c #998875",
"B. c #9E907E",
"V. c #A78B68",
"C. c #A3927C",
"Z. c #A99275",
"A. c #BE9F7A",
"S. c #A28D75",
"D. c #C58C47",
"F. c #CA914C",
"G. c #C5975E",
"H. c #CC9E67",
"J. c #D1A46D",
"K. c #7A7F84",
"L. c #8F9499",
"P. c #989A9D",
"I. c #A99883",
"U. c #B7A288",
"Y. c #B6A99A",
"T. c #8E99A5",
"R. c #959BA3",
"E. c #999DA3",
"W. c #949DA8",
"Q. c #989FA8",
"!. c #9AA0A9",
"~. c #A3A6A9",
"^. c #A6A8AB",
"/. c #BFB3A3",
"(. c #ABAEB3",
"). c #CAAB87",
"_. c #C2AE95",
"`. c #D5BA98",
"'. c #CBB599",
"]. c #CAB8A2",
"[. c #D8C2A8",
"{. c #D5C7B6",
"}. c #DFCCB4",
"|. c #C5CDD3",
" X c #C9CCD0",
".X c #CBD2DA",
"XX c #CDCFD2",
"oX c #E0D3C4",
"OX c #D9DDE1",
"+X c #DBE2EA",
"@X c #DAE6F3",
"#X c #E5E8E9",
"$X c #ECF5FD",
"%X c #FAFFFF",
"&X c #F4F9FF",
"*X c black",
/* pixels */
"*X*X*X*X*X*X*X*X*X*X*X*X*X*X*X*X*X*X*X*X*X*X*X*X*X*X*X*X*X*X*X*X*X*X*X*X*X*X*X*X*X*X*X*X*X*X*X*X*X*X*X*X*X*X*X*X*X*X*X*X*X*X*X*X",
"*X*X*X*X*X*X*X*X*X*X*X*X*X*X*X*X*X*X*X*X*X*X*X*X*X*X*X*X*X*X*X*X*X*X*X*X*X*X*X*X*X*X*X*X*X*X*X*X*X*X*X*X*X*X*X*X*X*X*X*X*X*X*X*X",
"*X*X*X*X*X*X*X*X*X*X*X*X*X*X*X*X*X*X*X*X*X*X*X*X*X*X*X*X*X*X*X*X*X*X*X*X*X*X*X*X*X*X*X*X*X*X*X*X*X*X*X*X*X*X*X*X*X*X*X*X*X*X*X*X",
"*X*X*X*X*X*X*X*X*X*X*X*X*X*X*X*X*X*X*X*X*X*X*X*X*X*X*X*X*X*X*X*X*X*X*X*X*X*X*X*X*X*X*X*X*X*X*X*X*X*X*X*X*X*X*X*X*X*X*X*X*X*X*X*X",
"*X*X*X*X*X*X*X*X*X*X*X*X*X*X*X*X*X*X*X*X*X*X*X*X*X*X*X*X*X*X*X*X*X*X*X*X*X*X*X*X*X*X*X*X*X*X*X*X*X*X*X*X*X*X*X*X*X*X*X*X*X*X*X*X",
"*X*X*X*X*X*X*X*X*X*X*X*X*X*X*X*X*X*X*X*X*X*X*X*X*X*X*X*X*X*X*X*X*X*X*X*X*X*X*X*X*X*X*X*X*X*X*X*X*X*X*X*X*X*X*X*X*X*X*X*X*X*X*X*X",
"*X*X*X*X*X*X*X*X*X*X*X*X*X*X*X*X*X*X*X*X*X*X*X*X*X*X*X*X*X*X*X*X*X*X*X*X*X*X*X*X*X*X*X*X*X*X*X*X*X*X*X*X*X*X*X*X*X*X*X*X*X*X*X*X",
"*X*X*X*X*X*X*X*X*X*X*X*X*X*X*X*X*X*X*X*X*X*X*X*X*X*X*X*X*X*X*X*X*X*X*X*X*X*X*X*X*X*X*X*X*X*X*X*X*X*X*X*X*X*X*X*X*X*X*X*X*X*X*X*X",
"*X*X*X*X*X*X*X*X*X*X*X*X*X*X*X*X*X*X*X*X*X*X*X*X*X*X*X*X*X*X*X*X*X*X*X*X*X*X*X*X*X*X*X*X*X*X*X*X*X*X*X*X*X*X*X*X*X*X*X*X*X*X*X*X",
"*X*X*X*X*X*X*X*X*X*X*X*X*X*X*X*X*X*X*X*X*X*X*X*X*X*X*X*X*X*X*X*X*X*X*X*X*X*X*X*X*X*X*X*X*X*X*X*X*X*X*X*X*X*X*X*X*X*X*X*X*X*X*X*X",
"*X*X*X*X*X*X*X*X*X*X*X*X*X*X*X*X*X*X*X*X*X*X*X*X*X*X*X*X*X*X*X*X*X*X*X*X*X*X*X*X*X*X*X*X*X*X*X*X*X*X*X*X*X*X*X*X*X*X*X*X*X*X*X*X",
"*X*X*X*X*X*X*X*X*X*X*X*X*X*X*X*X*X*X*X*X*X*X*X*X*X*X*X*X*X*X*X*X*X*X*X*X*X*X*X*X*X*X*X*X*X*X*X*X*X*X*X*X*X*X*X*X*X*X*X*X*X*X*X*X",
"*X*X*X*X*X*X*X*X*X*X*X*X*X*X*X*X*X*X*X*X*X*X*X*X*X*X*X*X*X*X*X*X*X*X*X*X*X*X*X*X*X*X*X*X*X*X*X*X*X*X*X*X*X*X*X*X*X*X*X*X*X*X*X*X",
"*X*X*X*X*X*X*X*X*X*X*X*X*X*X*X*X*X*X*X*X*X*X*X*X*X*X*X*X*X*X*X*X*X*X*X*X*X*X*X*X*X*X*X*X*X*X*X*X*X*X*X*X*X*X*X*X*X*X*X*X*X*X*X*X",
"*X*X*X*X*X*X*X*X*X*X*X*X*X*X*X*X*X*X*X*X*X*X*X*X*X*X*X*X*X*X*X*X*X*X*X*X*X*X*X*X*X*X*X*X*X*X*X*X*X*X*X*X*X*X*X*X*X*X*X*X*X*X*X*X",
"*X*X*X*X*X*X*X*X*X*X*X*X*X*X*X*X*X*X*X*X*X*X*X*X*X*X*X*X*X*X*X*X*X*X*X*X*X*X*X*X*X*X*X*X*X*X*X*X*X*X*X*X*X*X*X*X*X*X*X*X*X*X*X*X",
"*X*X*X*X*X*X*X*X*X*X*X*X*X*X*X*X*X*X*X*X*X*X*X*X*X*X*X*X*X*X*X*X*X*X*X*X*X*X*X*X*X*X*X*X*X*X*X*X*X*X*X*X*X*X*X*X*X*X*X*X*X*X*X*X",
"*X*X*X*X*X*X*X*X*X*X*X*X*X*X*X*X*X*X*X*X*X*X*X*X*X*X*X*X*X*X*X*X*X*X*X*X*X*X*X*X*X*X*X*X*X*X*X*X*X*X*X*X*X*X*X*X*X*X*X*X*X*X*X*X",
"*X*X*X*X*X*X*X*X*X*X*X*X*X*X*X*X*X*X*X*X*X*X*X*X*X*X*X*X*X*X*X*X*X*X*X*X*X*X*X*X*X*X*X*X*X*X*X*X*X*X*X*X*X*X*X*X*X*X*X*X*X*X*X*X",
"*X*X*X*X*X*X*X*X*X*X*X*X*X*X*X*X*X*X*X*X*X*X*X*X*X*X*X*X*X*X*X*X*X*X*X*X*X*X*X*X*X*X*X*X*X*X*X*X*X*X*X*X*X*X*X*X*X*X*X*X*X*X*X*X",
"*X*X*X*X*X*X*X*X*X*X*X*X*X*X*X*X*X*X*X*X*X*X*X*X*X*X*X*X*X*X*X*X*X*X*X*X*X*X*X*X*X*X*X*X*X*X*X*X*X*X*X*X*X*X*X*X*X*X*X*X*X*X*X*X",
"*X*X*X*X*X*X*X*X*X*X*X*X*X*X*X*X*X*X*X*X*X*X*X*X*X*X*X*X*X*X*X*X*X*X*X*X*X*X*X*X*X*X*X*X*X*X*X*X*X*X*X*X*X*X*X*X*X*X*X*X*X*X*X*X",
"*X*X*X*X*X*X*X*X*X*X*X*X*X*X*X*X*X*X*X*X*X*X*X*X*X*X*X*X*X*X*X*X*X*X*X*X*X*X*X*X*X*X*X*X*X*X*X*X*X*X*X*X*X*X*X*X*X*X*X*X*X*X*X*X",
"*X*X*X*X*X*X*X*X*X*X*X*X*X*X*X*X*X*X*X*X*X*X*X*X*X*X*X*X*X*X*X*X*X*X*X*X*X*X*X*X*X*X*X*X*X*X*X*X*X*X*X*X*X*X*X*X*X*X*X*X*X*X*X*X",
"*X*X*X*X*X*X*X*X*X*X*X*X*X*X*X*X*X*X*X*X*X*X*X*X*X*X*X*X*X*X*X*X*X*X*X*X*X*X*X*X*X*X*X*X*X*X*X*X*X*X*X*X*X*X*X*X*X*X*X*X*X*X*X*X",
"*X*X*X*X*X*X*X*X*X*X*X*X*X*X*X*X*X*X*X*X*X*X*X*X*X*X*X*X*X*X*X*X*X*X*X*X*X*X*X*X*X*X*X*X*X*X*X*X*X*X*X*X*X*X*X*X*X*X*X*X*X*X*X*X",
"*X*X*X*X*X*X*X*X*X*X*X*X*X*X*X*X*X*X*X*X*X*X*X*X*X*X*X*X*X*X*X*X*X*X*X*X*X*X*X*X*X*X*X*X*X*X*X*X*X*X*X*X*X*X*X*X*X*X*X*X*X*X*X*X",
"*X*X*X*X*X*X*X*X*X*X*X*X*X*X*X*X*X*X*X*X*X*X*X*X*X*X*X*X*X*X*X*X*X*X*X*X*X*X*X*X*X*X*X*X*X*X*X*X*X*X*X*X*X*X*X*X*X*X*X*X*X*X*X*X",
"*X*X*X*X*X*X*X*X*X*X*X*X*X*X*X*X*X*X*X*X*X*X*X*X*X*X*X*X*X*X*X*X*X*X*X*X*X*X*X*X*X*X*X*X*X*X*X*X*X*X*X*X*X*X*X*X*X*X*X*X*X*X*X*X",
"*X*X*X*X*X*X*X*X*X*X*X*X*X*X*X*X*X*X*X*X*X*X*X*X*X*X*X*X*X*X*X*X*X*X*X*X*X*X*X*X*X*X*X*X*X*X*X*X*X*X*X*X*X*X*X*X*X*X*X*X*X*X*X*X",
"*X*X*X*X*X*X*X*X*X*X*X*X*X*X*X*X*X*X*X*X*X*X*X*X*X*X*X*X*X*X*X*X*X*X*X*X*X*X*X*X*X*X*X*X*X*X*X*X*X*X*X*X*X*X*X*X*X*X*X*X*X*X*X*X",
"*X*X*X*X*X*X*X*X*X*X*X*X*X*X*X*X*X*X*X*X*X$ o ; j j v k j ; ; ; ; ; ; = $ * * * o O * *X*X*X*X*X*X*X*X*X*X*X*X*X*X*X*X*X*X*X*X*X",
"*X*X*X*X*X*X*X*X*X*X*X*X*X*X*X*X*X*X*X  l Y L. XOX$X%X+XOX^.~.~.^.~.^.K.H U U Y L c c k . *X*X*X*X*X*X*X*X*X*X*X*X*X*X*X*X*X*X*X",
"*X*X*X*X*X*X*X*X*X*X*X*X*X*X*X*X*X*X*X3 F S n.Y.].}.[.U.'.Z.n.v.n.v.S.s.n m m b m b t b 3 *X*X*X*X*X*X*X*X*X*X*X*X*X*X*X*X*X*X*X",
"*X*X*X*X*X*X*X*X*X*X*X*X*X*X*X*X*X*X# O.} _ 8 ;.y.w.+.^ t.;.+.#.8 ( @.@.*.} } 5 ' } } ` e # *X*X*X*X*X*X*X*X*X*X*X*X*X*X*X*X*X*X",
"*X*X*X*X*X*X*X*X*X*X*X*X*X*X*X*X*X*X0 O.| 5 %.z.u.z.] >.z.>.&.*._ } *.&.&.| { _ w | { | e 9 *X*X*X*X*X*X*X*X*X*X*X*X*X*X*X*X*X*X",
"*X*X*X*X*X*X*X*X*X*X*X*X*X*X*X*X*X@ O.| r ) e.z.u.u.` 6.z.&.%.*.) } *.&.*.%.{ ] q | { { r ] % *X*X*X*X*X*X*X*X*X*X*X*X*X*X*X*X*X",
"*X*X*X*X*X*X*X*X*X*X*X*X*X*X*X*X*X7 o.` 6 +.w.;.y./ ^ l.y.@.+.#.W ( #.....+.' ' 7 ` } } | e 1 *X*X*X*X*X*X*X*X*X*X*X*X*X*X*X*X*X",
"*X*X*X*X*X*X*X*X*X*X*X*X*X*X*X*X  b S h.I.U.`.[.`.U.U.V.S.v.v.v.h.b.v.v.v.S n B b n B n p t b X *X*X*X*X*X*X*X*X*X*X*X*X*X*X*X*X",
"*X*X*X*X*X*X*X*X*X*X*X*X*X*X*X*X. J I E..X.X@X$X@X.X|.T.T.W.R.R.!.Q.W.W.W.I G J J L J G h h R & *X*X*X*X*X*X*X*X*X*X*X*X*X*X*X*X",
"*X*X*X*X*X*X*X*X*X*X*X*X*X*X*X*X, 3.s 5.c.H.H.J.H.x.G.c.g.a.f.f.p.a.g.f.f.5.s d d y d d i i s < *X*X*X*X*X*X*X*X*X*X*X*X*X*X*X*X",
"*X*X*X*X*X*X*X*X*X*X*X*X*X*X*X*Xr o.! 6 $.e.w.q.w.8 w.y.;.@.@.@.W ( #.@...%.' ' ` 7 } } |  .) 9 *X*X*X*X*X*X*X*X*X*X*X*X*X*X*X*X",
"*X*X*X*X*X*X*X*X*X*X*X*X*X*X*X*Xe | e ' :.u.u.u.z._ u.i.>.%.&.*.Q } *.&.&.&.{ { { 0 | { { | ] 9 *X*X*X*X*X*X*X*X*X*X*X*X*X*X*X*X",
"*X*X*X*X*X*X*X*X*X*X*X*X*X*X*X*Xe 4.5 &.u.u.u.i.-.O.u.u.>.&.&.*._ ^ *.&.&.&.| { { q [ { { | ] 9 *X*X*X*X*X*X*X*X*X*X*X*X*X*X*X*X",
"*X*X*X*X*X*X*X*X*X*X*X*X*X*X*X*Xw 4.0 %.u.u.u.z.| -.z.u.6.&.&.*.) } *.&.&.&.} { | w e | 2.| ) 2 *X*X*X*X*X*X*X*X*X*X*X*X*X*X*X*X",
"*X*X*X*X*X*X*X*X*X*X*X*X*X*X*X*Xw O.0 %.>.u.u.z.| =.z.u.:.%.&.*.! } *.&.&.&.| { | w r | | | ] 2 *X*X*X*X*X*X*X*X*X*X*X*X*X*X*X*X",
"*X*X*X*X*X*X*X*X*X*X*X*X*X*X*X*Xe O.0 / u.u.u.z.| =.z.u.>.%.&.*.Q ^ *.&.&.&.| [ | w r { { | ] 1 *X*X*X*X*X*X*X*X*X*X*X*X*X*X*X*X",
"*X*X*X*X*X*X*X*X*X*X*X*X*X*X*X*Xe O.0 %.u.u.u.z.O.=.u.u.>.%.&.*._ } *.&.&.&.| { | w ] { { | ] 2 *X*X*X*X*X*X*X*X*X*X*X*X*X*X*X*X",
"*X*X*X*X*X*X*X*X*X*X*X*X*X*X*X*Xw 4.7 %.e.u.u.i.| -.i.i.>.%.&.*.Q  .*.&.&.&.| { | w r { { | ] 9 *X*X*X*X*X*X*X*X*X*X*X*X*X*X*X*X",
"*X*X*X*X*X*X*X*X*X*X*X*X*X*X*X*Xe O.0 %.u.u.u.z.| -.i.u.6.%.%.*.)  .*.&.&.&.| [ | e e | { | _ 9 *X*X*X*X*X*X*X*X*X*X*X*X*X*X*X*X",
"*X*X*X*X*X*X*X*X*X*X*X*X*X*X*X*Xw O.0 %.u.u.u.z.| -.i.i.>.%.*.*.) } *.&.&.&.| { | w [ { { | ] 9 *X*X*X*X*X*X*X*X*X*X*X*X*X*X*X*X",
"*X*X*X*X*X*X*X*X*X*X*X*X*X*X*X*Xe O.0 %.u.u.u.u.=.O.i.u.>.%.&.*.Q  .&.&.&.&.| { [ 0 | { { { ] 9 *X*X*X*X*X*X*X*X*X*X*X*X*X*X*X*X",
"*X*X*X*X*X*X*X*X*X*X*X*X*X*X*X*Xw 4.q ^ >.u.u.u.i._ r.u.>.&.*.*._ } *.&.&.o.{ { [ q | { { | ] 9 *X*X*X*X*X*X*X*X*X*X*X*X*X*X*X*X",
"*X*X*X*X*X*X*X*X*X*X*X*X*X*X*X*X]  .` 6 $.r.e.e.e.8 e.t.,.+.+.#.Q ( @.@.@.X.{ } ` 5 } { } } _ 9 *X*X*X*X*X*X*X*X*X*X*X*X*X*X*X*X",
"*X*X*X*X*X*X*X*X*X*X*X*X*X*X*X*X2 1.i <.k.D.F.F.F.5.D.k.0.4.9.9.1.4.9.8.8.4.<.<.2.y <.<.i 2.u , *X*X*X*X*X*X*X*X*X*X*X*X*X*X*X*X",
"*X*X*X*X*X*X*X*X*X*X*X*X*X*X*X*XO K K E.|.|.OX$X+XXX|.T.R.R.E.R.Q.E.R.E.E.L G H K K H G g l U & *X*X*X*X*X*X*X*X*X*X*X*X*X*X*X*X",
"*X*X*X*X*X*X*X*X*X*X*X*X*X*X*X*XX v F m.Y.].{.oX{.].Y.I.B.M.M.M.m.m.B.M.M.D V C V V C M z z C O *X*X*X*X*X*X*X*X*X*X*X*X*X*X*X*X",
"*X*X*X*X*X*X*X*X*X*X*X*X*X*X*X*X*Xw =._ 1 &.e.e.i. . .t.r.*.X.#.Q ^ #.+.@.&.{ | 7 ` | ' | ) 9 *X*X*X*X*X*X*X*X*X*X*X*X*X*X*X*X*X",
"*X*X*X*X*X*X*X*X*X*X*X*X*X*X*X*X*X% O.| e ! e.i.u.>.' u.i.&.&.*.! } *.+.&. .{ _ q | { | ] _ % *X*X*X*X*X*X*X*X*X*X*X*X*X*X*X*X*X",
"*X*X*X*X*X*X*X*X*X*X*X*X*X*X*X*X*X*Xe O.{ q *.i.u.i.e u.i.>.+.&.) } *.&.&.{ { ] q | { | e 0 *X*X*X*X*X*X*X*X*X*X*X*X*X*X*X*X*X*X",
"*X*X*X*X*X*X*X*X*X*X*X*X*X*X*X*X*X*X@ o. .) 6 ,.w.y./ X.t.e...#.8 ( @.#.#.} } 7 ` } } ' e @ *X*X*X*X*X*X*X*X*X*X*X*X*X*X*X*X*X*X",
"*X*X*X*X*X*X*X*X*X*X*X*X*X*X*X*X*X*X*X4 S S j.J.).`.).Z.J.V.d.V.s.d.V.p.f N N a N a p a 4 *X*X*X*X*X*X*X*X*X*X*X*X*X*X*X*X*X*X*X",
"*X*X*X*X*X*X*X*X*X*X*X*X*X*X*X*X*X*X*X. c R P. X#X&X%X#XOX(.~.~.^.^.(.K.J U U R U x c c O *X*X*X*X*X*X*X*X*X*X*X*X*X*X*X*X*X*X*X",
"*X*X*X*X*X*X*X*X*X*X*X*X*X*X*X*X*X*X*X*X. = - j Z T E T Z v j k k k v : = - - - = * = X *X*X*X*X*X*X*X*X*X*X*X*X*X*X*X*X*X*X*X*X"
};
