/* XPM */
static char *result[] = {
/* columns rows colors chars-per-pixel */
"64 64 62 1 ",
"  c #010101",
". c #020202",
"X c gray1",
"o c #060606",
"O c #070707",
"+ c gray3",
"@ c #090909",
"# c gray4",
"$ c #0B0B0B",
"% c #0C0C0C",
"& c gray5",
"* c #0E0E0E",
"= c #0F0E0F",
"- c gray6",
"; c #101010",
": c #111111",
"> c gray7",
", c #131313",
"< c gray8",
"1 c #151515",
"2 c #161616",
"3 c gray9",
"4 c #181818",
"5 c #191919",
"6 c gray10",
"7 c #1B1B1B",
"8 c gray11",
"9 c #1D1D1D",
"0 c #1E1E1E",
"q c gray12",
"w c #202020",
"e c gray13",
"r c #222222",
"t c #232323",
"y c gray14",
"u c #252525",
"i c gray15",
"p c #272727",
"a c #282828",
"s c gray16",
"d c #2A2A2A",
"f c #2B2A2A",
"g c gray17",
"h c #2C2C2C",
"j c #2D2D2D",
"k c gray18",
"l c #2F2F2F",
"z c gray19",
"x c #313131",
"c c #323232",
"v c gray20",
"b c #343434",
"n c #353535",
"m c gray21",
"M c #373737",
"N c gray22",
"B c #393939",
"V c #3A3A3A",
"C c gray23",
"Z c #3C3C3C",
"A c #3F3F3F",
"S c gray25",
/* pixels */
"1>13<,112325666<476413>15>46665435<<,::;-:-:<;<2<12<,;,<<1324423",
"e;9uu0euwtq36euyysq8,2w9upyr86ypqw3*<9048qpr48r843,6864122<;;3rp",
"e*8hbmyyajxuwypgsdcp3>yidldiwrw6<<2,eskcvgzmxga0611tayieq8989uug",
"0;8aedhikcBxuudjlgjt,1uhhjdpurrewq5>2uay0euhkqsp5-9w88w77whsw6,7",
"2<4qqpkt3lAndddghah6-<qpyadgquiyeq9<6wstugatghpe3,28qeae76eiw942",
"5:8iihsdpaVBjvvgiddr,>eauptripger62>4rar6qp67zpr:-43qyerr2;4t649",
"4*9lxdypzilNlgakprla5*8ptieertiit6><07whd9es0iri8$qi088788wye986",
"6:ecvkride9gxhhudwui4:5uhuppqyqw56>:678yhapjjgxpq:1wqqeyyueuasyq",
":&7aahs0eae9uetyigt3>>8r0w842<73<1,>,ey670eqwttq4;:3q979wr77t05>",
"4::-;,65<1852,&33,11,<<86<,<3><5532;,:;:-*#;&%;*:,>,;;*;:>1<,<46",
"32442312<<4557512,,3233<4258377*-1123553238411<<1,><11,,113555<2",
"rtt2;2814990rewq095800,-0ueqdpdksuhmki0340er0945844113&-*580erii",
"bzp33700yrwwwpyryeq8ujr>uMCvzxgvlhnmx227989799ye907q9<,<8hsiyrxb",
"czy<260eiitippuuupyr8ie,8hnndwydaasyp7,8u7499wttpue76<:38usueuyg",
"eiw<3rywuyppuuisdjji877,qidjjkglmzcj1111riuat9pyrew96:*,1q0epiwr",
"4wq:3ttysytpagpeiigkpeq:qduzMvauphgnvww,9qq5r94e8et06:*<70q87454",
"00w<3rwesdwqqeue7ttugaw,6dsukkkq49aeca62yir96ry90793<:*,8uaue07r",
"08<-3q51605673503489ae6,960ie:5442iyrw20099897we0785>**;10uywq07",
"411*;23,;>1,<;><2<<,36:;<:;,:%,2,&,63<>,<<:;>:%;1>2<>%$$;:<44113",
"2<564543542;::%-::,1241531<;,1<>&;-:>;*:<111,<>>-;:,<221<,<<1316",
"636qe84qy7-28rt9yperq6>,68,1336wpeqeppyeeqqq9rtw61<1488962555748",
"9340dcjqrt<<59ie955weiywet5:7ttrasha9wyyypupiwis9;4677q45yq83376",
"y0qqwyayt7150qyytq38rrgdai9;0nNhrgkr9rrerrqtr5<e0>,estshydiyeisp",
"ww79w98ytq24t7270e113526655:4eieywut56675634992><>16we8tq<tuq0e7",
"0ew9wt60q91<wy0itaiseirw977:66qetuttqwyruy0rrq732-,80erydye358we",
"78wperwru8>4wpsftrsgpudsht7,4tte80igdghdyq7erew71*>545rytiaeqwqe",
"yw780wu095,3igd0uirtgaitse,-:rsypueryreeidaq00iq6;29wr85taiuatwq",
"uq55w9731>;1ty093995q08576,-;,,1<342>>3347004,:-2<:88398559558wt",
"4:-;;:O%;<33,:>>,14>,1>;>27<<-#o@&:>;*##@$;:,<<,1>&*--<1:;,:-2,<",
";-,,>3<&&<5615qu3>2858yar0erq>-,49e6;:2;;*;+%:,4tq;2<%*1*2,>;*$+",
"ur8q7175-1ryyyihxipdppsyweip0,4qiw09weit0879;:288q98q82spqyrwut0",
"ertuauae23ungtgasi9ispepzgrty25esd9ygs5rq8q6,156<7tteiuis0eyppgp",
"ytescjiq22rhvxkkhduie0qgjszvj43upjhper9991e4<3eiwtpsyukwryrtuyeu",
"qtdisjkw17pgdkgaruyyreuwpstru7>53thatt70p944>qriidkhhdjdtsiyhdsp",
"tw7eewq4,8eyttadt8e8wuryruue81<<156eir7409q5;9rqit3egr4yt9q0060y",
"q6447751,<353448t7566882:;<2<,33,::147944532>262214,38,6921934<4",
"q2555642<5643>688988741157512344>1464251153,<54455771<215w07867r",
"u8>1770qrqywq8545ry09<<35767177ew867y04971eu9y0$&*-39wu02,56445u",
"si;4tuppgshzjuiiitqip4-9dkkdtddpiautwd60jdehaq7:159qwuuydpspaddr",
"ag42qjggjckduiutsjhuq<:egxvzsdcgdkhdhlu7ilaqy08<7eiiuw8pptprrprt",
"rr530usdpeypptparshdu3:0udittdkbhipdhchr9ajjkq713ry00y9eyq088trt",
"iq:4iauakyiggxzlstwpl9*8sppw9trjkdkspaaywydjhs024taiasuigpsdspyy",
"dr>1taiyhjapyukkuysypw:1qypdtrpshzzaerss7e79u7:>4wqreigiiuipeety",
"22;;<4436w09q97888ee06:>,44595367>*38q6w06426,-;190944769677<<64",
"2<111:;,>:;;:;><2,<143>14332,<2,-<<224734773145,35411,,<31:;>:-1",
"7>::3ww04,256w0qww955778q643437056648w79;1662651248ew06129e5,428",
"hiapddsjh0<8rre8eyw09qwerr9;3t0hpy66q937320s09uyiytrttgq,8sjajuy",
"zlmvduakbg24ugauqt08q80wpiq<3ysdauytw76q<qzzkajitiaiewir2qajpput",
"0u8puyaasy39yaagidgr90ttey9:2ryipaq0ryta56pipdijpw7pdytw1egbxjla",
"jlkridpdsp1ypadipsdpu0t0qe4-<qiryyyuswww1,qwrgczjhjaldd9:eusbldl",
"jibNdsjar7,qaatuttytyyiyqq8;:ytyr6weituq>>slgpyiggkijppe;wlgadwr",
"isykdsspw7:0iuwpuaituyuse96:=3yw0t90qw80,4hvzjpy89ypapw3:qaghjpe",
"0q819qqw84,37745647452,482:-,4453<>,,-%,%40ee68e95688732:<366854",
"7,:<>><134726q75004337712322-;,--*:*1333>2554788722456215452;,46",
"cz5,9wr00wwyetradlu:0sssaue864er,$%347e8690q809862>7pgyyeizcvvvb",
"lme1pjbvsvnBmpjbcbc4azklsxMvzxai7tmMl9riahihhudse7*yhjbzcljbCkag",
"ue20vBbVMkkkNNxMMca2qtpahksanvki3pMaMhzxlczallvg95:7spcBcdalnjar",
"Md>3iugxk9ebnNkthmg<0gkkgzhlmCSM93y5ilcpazxsajll9<-uzklkcnjpkbmv",
"MV0,knzannsgbcNxkMj56pyidlvbzcbkqag2308lutehpijxy4;wsikgwmzplzlm",
"znw1ygrrpzvhshtjvda758riyjjalaa93aZpqgskzldejwyur1:pppcZxnVMbxzk",
"pa6<tyidt9hgyehuupe<0eyljkgilwr8:5lccxjkvsdsuusw5<%ylgdxnjxkgjzz",
"uu11rpyrriruu087<87<466eyq9;7y00<*>5q8qr059e09qq41:2987847qweytu",
"813,264-X%@->*:>:@&:;,-:>>>1;;1,;>># ##.#-*;;$,<:<<21:;<24<32249",
"sskgiskxdye77r80thhupshagdyqrue96qphu79qiiiajgiutwqespsdhgluqthg"
};
