/* XPM */
static char *result[] = {
/* columns rows colors chars-per-pixel */
"64 64 215 2 ",
"   c #010101",
".  c #0B0203",
"X  c #020B05",
"o  c #0C0C03",
"O  c #020E0A",
"+  c #0D0E0B",
"@  c #130101",
"#  c #1B0003",
"$  c #1D0D00",
"%  c #1B0208",
"&  c #130D0B",
"*  c #1D0D0B",
"=  c #071508",
"-  c #02130D",
";  c #0D130D",
":  c #131403",
">  c #171701",
",  c #14140D",
"<  c #1B140D",
"1  c #15190E",
"2  c #1A1B0E",
"3  c #0D1B11",
"4  c #151611",
"5  c #1A1710",
"6  c #151B11",
"7  c #1B1C12",
"8  c #230002",
"9  c #2B0101",
"0  c #260A06",
"q  c #2E040A",
"w  c #250C0B",
"e  c #2D0C0C",
"r  c #350002",
"t  c #3B0000",
"y  c #34030A",
"u  c #3C030A",
"i  c #340C0C",
"p  c #3B0C0D",
"a  c #201001",
"s  c #24130E",
"d  c #2D120E",
"f  c #231B0F",
"g  c #341609",
"h  c #34110F",
"j  c #3B110E",
"k  c #3B0F11",
"l  c #251710",
"z  c #2C1611",
"x  c #231B12",
"c  c #2C1C13",
"v  c #351511",
"b  c #3C1411",
"n  c #331A13",
"m  c #3C1C15",
"M  c #1D2114",
"N  c #1B2617",
"B  c #1E2618",
"V  c #222300",
"C  c #27260D",
"Z  c #222316",
"A  c #2A2216",
"S  c #262917",
"D  c #292B17",
"F  c #242619",
"G  c #2B2619",
"H  c #262A1A",
"J  c #2B2C1C",
"K  c #332215",
"L  c #33251A",
"P  c #3C241A",
"I  c #332B1D",
"U  c #3B2A1D",
"Y  c #26321D",
"T  c #2E311E",
"R  c #31321E",
"E  c #3C301E",
"W  c #2D2E20",
"Q  c #372620",
"!  c #332F22",
"~  c #3A2F20",
"^  c #2E3121",
"/  c #2F3825",
"(  c #333422",
")  c #3B3423",
"_  c #363925",
"`  c #3A3B26",
"'  c #333328",
"]  c #363B29",
"[  c #3C3D29",
"{  c #3D3F30",
"}  c #440002",
"|  c #4B0002",
" . c #43030B",
".. c #49030C",
"X. c #430C0E",
"o. c #4A0B0E",
"O. c #520000",
"+. c #51040E",
"@. c #510A0F",
"#. c #43110F",
"$. c #421B0F",
"%. c #4C0F10",
"&. c #520E11",
"*. c #441311",
"=. c #4B1312",
"-. c #431B15",
";. c #4B1B16",
":. c #441E18",
">. c #4B1E18",
",. c #531313",
"<. c #5C1415",
"1. c #501B17",
"2. c #521E19",
"3. c #621F1C",
"4. c #4A2017",
"5. c #43251B",
"6. c #4B241B",
"7. c #43291D",
"8. c #4B291E",
"9. c #53241B",
"0. c #5B261E",
"q. c #54281E",
"w. c #4E2620",
"e. c #452E21",
"r. c #4B2D22",
"t. c #572421",
"y. c #532E21",
"u. c #5A2A21",
"i. c #443424",
"p. c #4B3425",
"a. c #423A27",
"s. c #4A3927",
"d. c #443628",
"f. c #443C2A",
"g. c #4A3B2A",
"h. c #543225",
"j. c #59352B",
"k. c #523B2A",
"l. c #413E30",
"z. c #593D32",
"x. c #3E4026",
"c. c #3F412B",
"v. c #3D4131",
"b. c #43442D",
"n. c #4B422D",
"m. c #47482F",
"M. c #52432E",
"N. c #444531",
"B. c #4B4632",
"V. c #464931",
"C. c #4B4C33",
"Z. c #474938",
"A. c #4C4D3A",
"S. c #524533",
"D. c #514C35",
"F. c #57483B",
"G. c #544D3B",
"H. c #4E5136",
"J. c #4E523A",
"K. c #515137",
"L. c #53543A",
"P. c #5A543F",
"I. c #56583D",
"U. c #595A3E",
"Y. c #604439",
"T. c #5E4F42",
"R. c #4F5340",
"E. c #555642",
"W. c #5D5443",
"Q. c #565942",
"!. c #5B5C44",
"~. c #555648",
"^. c #59574A",
"/. c #5C5D49",
"(. c #5E5E51",
"). c #645947",
"_. c #665748",
"`. c #635F51",
"'. c #5E6145",
"]. c #5F614A",
"[. c #5D6052",
"{. c #616346",
"}. c #63654C",
"|. c #67684F",
" X c #636452",
".X c #686456",
"XX c #666952",
"oX c #6A6C54",
"OX c #6B6D5C",
"+X c #736A5C",
"@X c #6E7056",
"#X c #72745C",
"$X c #75785F",
"%X c #6E6F62",
"&X c #737563",
"*X c #777965",
"=X c #7A7D64",
"-X c #75756A",
";X c #7B7C6A",
":X c #7E806B",
">X c #80826E",
",X c #848572",
"<X c #868974",
"1X c #8A8C76",
"2X c #8D8D7A",
"3X c #8F927D",
"4X c #8F9080",
"5X c #949682",
"6X c #9B9D8A",
"7X c #9BA08A",
"8X c #A2A38F",
"9X c #A3A395",
"0X c #AFB0A4",
"qX c #B2B3A8",
"wX c #C8CABD",
/* pixels */
"(..X&X;X;X:X<X>X:X;X>X;X&X;X-X&X-X-X&X-X%X&X-X>X*X%XOX X(.(.(.(.OX&X%X(.~.(.OX*X;X&X&X&X-X;X&XOXOX&X,X1X:X,X<X:X-X;X;XOXOX%XOX X",
"# U { v.J.}.XX}.|.Q.!.!.A.A.A.E.E.L.!.A.N.Z.Z.!.L.N.] ' W F W M W W F 6 7 7 W N.A.L.N.N.N.v.[ N.A.~./.{.}.}./.!.E.!.E.v.' ' :.9 ",
"x  .} $.Z M R c.b.f.b.[ ` ( ( ) H H ( I W ' R H F :     D ` [ J ( ] D     + . 7 2 D Z J 2 : M Z ( [ [ b.B.m.R G 7 Z : < q r ..5 ",
"O b %.X.&.b , F H F H M Z Z F Z W 7 , Z F F Z x H Z. X(.J H _ ( 6 [ A.OXE.( Z T ( _ H M 4 J H Z 1 7 x H F F J H 6 O w i e #.h O ",
"+ 4 &.h v =.p I b._ H Z ( b._ ( [ H H ` Z F Z Z b.}.@X=X X, Z ) @ B.#X>X=X'.Y F _ J c.( Z _ J T c.[ M F ( m.] M s h v l 1 X.* X ",
"+ - #.b B F h t i ( H.!.b.}.!.[ ( H Z ` _ F M ( f.) K h b b y i p *.} } ;.8.e.A B ^ _ ` ( ^ H V.].N.B.A.c.Z o y p p x - d X.& + ",
"+ + l e Z H R [ I r j C.Q._ b.L.U.I.A.T T M c n q 9 9 i s d l x c n h d y  . .#.*.5.I ] Q.C.A.b.( R B.Y , e p i.! P 7 d p c ; 7 ",
"7 4 , w e , 2 ( ` 1.:.o.P.].V.c.D Z.L.f s i y e d A H G J I S 1 G J G Z c n f p i  .} 6.Z.J ( c.A.!._ z #.*.=.H 7 M ; y n 6 Z J ",
"J 7 5 4 e s B M f >.a.u t z.W.XXOX[ 0 v y h n ` ` ` [ [ I J Z.~.! Z I f.I I T I H c b o.} -.L.J.J.( 9 m 5.u *.I Z < < v 7 H c.R ",
"W J 7 6 < c ^ M ( L.I.7./ t t U B.L u v L U ( C.B.K.L.b._ L.L.I.L.[ ( b.b.B.H.[ R T S Z b ,.;.c 0 j U N.m.5.c J J 6 c h , _ [ ( ",
"( N.W 7 7 0 Q 4 H C.` I N.n.[ t 9 y K Q ( 5.B.U.C.'.U.( b.c.R ( T B.` c.}.{.Q.b.b.T T _ H #.i y >.s._ [ _ ( < M M d X.h F b.b.( ",
"_ m.b.H , * c H H L c z H m 6.p v k  .r.i.q.I.'.d.{.U.I ( F c.B.J S G b.'.|.L.f.I.C.C.c.U  .v p #.=.h G _ J s A 6 e e F [ N.b._ ",
"( B.H.c.M ; 8 c H f.g.L x.b t P 5.-.U b =.u.'./.B.!.[ K b.b.I.}.m.[ b._ L.oXI.5.'.U.f.9 -.U L X.< *.@.i.c.H l , & e < c.C.C.C.x.",
"( B.K.C.( , & e F H H H P u ` [ S.y.B.r.e.+.h.L.Q.c.N.I.L.U.oXoX{.H.H.L.b.L./.n.U.f.t e.[ E.) U B K =.b c z 7 ; w d T B.C.B.V.( ",
"( m.H.H.b.J 4 8 G J ; n } i.b.Z. Xs.A.D.k.2.r.,.m C.oXoX{.|.@XZ.oX'.}.|.'.[ V.I.b 8.L.m.[ b.W.F ( - :...&.U 6 & q J m.C.C.m.N./ ",
"( m.I.C.V.b.H < e Z x  .p ( F A.A.A.!.B.G.B.g.b p.>.F.}.!.$X/.R $X}.|.oX'.L.i t P.}.}.I.V.a ( l T f 3 n *.z - e v b.C.C.m.C.L.[ ",
"[ K.L.C.m.m.[ 1 p i i *.H F F R D C.B.e.` [ d B.L.5.6.5.I.&XI.!.W.=XC.L.e.#.e.-.N.W.}.I.C.J : Z 2 M Z 3 b u & ..i.V.K.H.H.K.C.b.",
"[ K.U.B.b.c.b.F < o. .l B ( R F [ !.B.G.g.I Z.D.n.p.J.X.9.p.!.OX!.oXN.r P n.B.i._ b.@X/.H.b.7 M T H Z + 7 =.X.-.V.B.C.m.C.H.b.[ ",
"( H.U.C.x.c.c.M d o.b - , J H ` I.L.C.{.b.` C.L.V.B.b.5.I %.;._.!.j m U H.L.A.f.V.G !.Q.H.V._ Z ( Z , 7 ; l ..7.H.C.C.C.b.m.c.( ",
"` H.U.K.b.x.H M #.p ,.f M J F [ b.` '.I.H b.H.B.J.J._ c.N.P.Y.| o.u.] N.[ !.c.f.H.` R '.b.( c.J ( J Z R = v o.<.H.L.m.V.m.V.( Z ",
"( C.m.C.( R / c .., h i ; m.F J F N.!.H C.m.c.[ [.F #XL.A.k.w.e.e.,.b oXA.A./.R m.b.( V.'.2 T < N.( 2 F , #.l  .s.H.C.C.B.H.C.J ",
"[ m.H.B.[ R R b p 7 M i < Z.W M J L.] !.K.m.` oXN.[ =X[ p...;.L.L.r.;.j.`.> #X[ [ R }.N.A.] Z ; J.^ 2 M d p 3 m >.I.K.K.H.C.H.[ ",
"[ m.C.C._ x.a.#.d ` J s d J J ( [ ( !.@XXX}.oX2X( R.oXr ;.d.S.W.'.W.G...t.t #X>X!.!.'.XX[ _ R J J M 7 7 h l H f...M.K.K.V.H.B.b.",
"c.C.C.c.R x.i.,.I x.` 1 e A J J ` J !.@X X( V.$X/.r.,.p ] P.].oXH.D.m F.W.O._. Xc.J.L.L._ ( I J J A 6 d :.F b.L.-.e.H.H.H.H.H.b.",
"c.H.H.m.m.C.:.9.[ F [ 2 w e M ( J H B.C.oX;X&XN.t r.g.z.H.T }.XXc.J s.`.P.t t O._.XX[ B.( T ( H Z Z 1 j I ( I.'.s.=.K.C.K.L.K.m.",
"c.K.C.H.K.m.o.s.H.H H H 4 e 5 ( ( C.7 T N.R.W.z.F.B d.T.:X|.@XC.E.L.#X$XI ( .XW.p s.` 7 _ c.T F 1 1 d h N c.m.U.B.} n.C.K.L.L.b.",
"b.K.U.U.K.f...M.!.m.M , 4 l 9 J c.}.Z.= l 8 8 _.7Xl.@ +X6X9X,XB.2X1X6X#X  <X1XT   r k c XX' T 5 , ; i w R m.m.B.m.X.s.H.K.I.U.[ ",
"b.K.!.U.H.p.o.K.I.C.[ Z + 4 d $ V.A.T 8 t 6.< I 3X-X  &X3X5XOXC 2X;X1XD ~.3X^.  ( s.g *.i.N.J 7 1 w h J R _ R c.C.*.p.L.K.K.J.b.",
"c.I.!.I.K.p.#.L.L.C.H.( , 1 s i F N.# F.W.D L.  XX=X! b.[ c.Z.1 C.Z V.: }.oXL ' ].K  X. h b Z 7 , y U Z.m.x.m.K.I.5.8.I.C.K.K.b.",
"( K.K.H.I.7.$.C.m.m.c.x F H 7 p Q h } ~.wX-XB.7 ( Z.M Z Z J J 4 ( 5 J 5 2 b.7 Z.Z.0X9X  ^ L *.w c *.M b.C.c.H.C.I.8.4.K.K.!.H.[ ",
"[ C.K.C.L.8.4.H.m.m.T W b.c.( u p L e.f ;XqX.X# 6 7   F 4 7 ,   7 + Z , + , 4 ` 6X0X] A ( F :.j ..r.B H _ ` C.C.H.7.;.C.I.U.C.[ ",
"b.B.U.U.I.7.5.C.m.m.F b.H.n.;.c b z *.7 V a _ A J 4 F o o , F ' , ;   7 7 7 R ( x.> $ H ^ T A h :.9.m M b.m.m.H.C.7.-.C.I.L.m.b.",
"x.b.!.U.I.5.5.m.H.B.J J p.t ~ ( n X.6.7 J ( ( Z.J H [ N.!.J ] L.2 A.A.( J Z c.[ J ^ * i.c.^ -.+.E J.P q b.C.b.m.H.7.-.H.L.U.L.R ",
"R m.U.K.K.7.-.B.C.V.) 9 r.!.!.A.Z -.i.N.Z C.=XZ., 5 H N./.] I Z.H {.L.( , 4 M OX|.R J N.J F X.1.!.!.7  .*.7.c.c.C.5.4.H.H.K.K.( ",
"R c.I.I.H.U *.C.b.U X.X.7 OX+X!.Q.f.p Z N.Z.oX! H A 7 ] {.E.{ ~.( |.Z.H 5 J o !.^.J.( ( c.C.p ).-X( & p.[ #.4.m.H.5.9.H.K.C.m.J ",
"( C.K.C.b.e.#.` -.m J L , : H c ( J v P [ Z 7 ( c.Z 5 ( ]./.( Z.N.OXB.Z 7 J Z., F [ N.b.( ' X.U 2 : ` m.B.6.$.X.b.;.y.H.L.U.K.` ",
"_ K.K.[ m.s.%.=.h.c.x.c.( , + 7 o M J 9 H R H G c.( 1 J L.~.Z.!.N. XZ.7 Z [ b.J ( T 7 2 2 i *.1 ; J m.E c.p.n.p.1...k.H.L.I.m.` ",
"[ D.K.C.b.5...8.V.( H.I.m.( , 5 7 7 J 0 v Z H ( ^ [ , 1 L.&X!.C.oX'.J . ( ` b.[ J ( 7 7 l p A 6 2 [ f.[ b.b.[ m.M.+.2.s.H.L.m.R ",
"V.J.H.n.=.m 9.0.b.[ C.b.L.H.H 7 6 6 ; ; i d 3 _ 6 c.7 , [ #X~.4 =XC.M   c.W x._ 6 F 4 = d d N M b.m.[ m.H.c.m.m.h.=.;.<.h.L.C.` ",
"c.B.y.| n L 7.,.i.) E ;.S.n.I z l l w , e #.z z c I c % a S.Z.l W.J * w A c I c z * < < #.h c c a.b.i.>.i.f.f.f.b b n K +.0.s.[ ",
"[ p.3.5.5.o.p h X.*.m m -.5.P h h v i X.p i i p m *.m i q b n i -.u e i m m m y e d p p k h p m :. .p -.:.$.-.o.p m j -.U o.9.a.",
"` L.p.m.b.9.9.o.b 6.N.B.K.L.] < & , + i X.q 0 ; _ m.[ @ . I W & T e . I N.b.( 9 O O i X.< 3 * ^ s.q.U ` b.C.m.,.b b.b.b.C.i.V.` ",
"b.D.m.m.m.n.g.>.&.u.m.C.I.m.S , 5 7 Z + e x i A c.V.C.,   F F   7 ;   ~ D.c._ s F ; y v M 1 + M U i.) b.b.B.M.@.5.i.U ` C.C.V.b.",
"[ b.H.N.m.H.( T ;.4.m.i.H._ 1 1 ] ^ H e % F l m ( c.Q.^   7 4 + 7 <   N.b.J ] H G v  .L T c.J , Z b.C.H.H.H.8.o.a.b.n n.K.L.C._ ",
"` C.L.L.C.n.` c.g...n.H.C.! + x C.[ A * & B 5 v l ( c.[ ; , , , 7 . H [ _ 7 J 6 h %.p Z T L.V.& 2 b.D.C.K.m.@.0._ D I m.C.m.m.( ",
"` C.L.{.C.[ b.b.Z.4.=.H.H.F + c !._ ( 7 + . F b v J V.( H Z , , M H J b._ A 7 J v  .4 ( c E.C.1 7 m.K.C.c.-.,.k._ J J f.m.f.N.( ",
"[ C.m.C.C.K R R C.B.o.p.C.J 5 $ ].Q._ D   4 4 v y I b.` ( Z 1 7 Z J _ ( ( , 7 F p w   m.I XX( 1 1 _ K.K.i.| a.C.R T J ` m.b.m.[ ",
"( K.K.K.m.b.b.H.I.L.i.} g._ 5 Z ^ }.[ ~.(.  7 - w z N.D 7 C.b.H E.` : c.'   ; w t ' %XR '.N.2 7 F m.H.f...8.C.H.D T R T [ m.B.c.",
"[ K.U.C.m.K.H.L.I.K.K.8...) B Z   {  X4X-X  F 5 Z q F F M N.( Z N.( < H . F 7 p w 6 9XXX!.  7 6 ) K.C...9.C.K.C.b.T R _ R x.[ [ ",
"[ C.L.H.K.L.C.C.m.H.{.I.8. .R F Z   }.8X X  7 F W n L F Z Z 7 F 7 Z 6 R M [ n u 4   5X<X7 , 7 T m.m.;.2.m.C.L.I.b.D T [ x.c.[ _ ",
"( m.K.H.C.L.m.m.H.I.L.K.L.6.%.U B , J =X X  7 4 G [ i c ( b.c.( B.c.Z J J f.u z X ] 1X!.  7 ( C.b.#.,.D.H.C.I.U.C.x.m.H.L.C.[ R ",
"R x.m.H.L.L.C.m.C.I.H.C.L.b.$.,.m 7 H U.!.W   7 7 M d e _ V.b.J b.c.H H 6 m b 6 . R.E.( , J b.g.X.1.C.m.b.K.K.C.m.H.C.L.C._ [ J ",
"J m.H.I.C.H.m.C.m.L.I.I.L.[ b.2...X.I V.( A.! 7 7 Z A i H ( ( F ( T 7 J A o.w 7 [ b.J ( O H e. .<.n.H.K.C.H.C.H.U.I.K.H.b.J ` R ",
"( B.C.L.L.b.m.I.L.H.L.K.L.m.K.q.U  .;.P M B N.b.  6 ^ n n b.( Z _ ( M ( b y 3 b.F F B J * p  .;.M.C.c.x.C.C.b.C.U.K.I.K.x.x.b.[ ",
"T [ V.V.H.c.b.K.m.m.m.m.[ m.m.n.[ v b ..u d R J F 7 6 l i J J F ( F 6 d #.! Z ( J X * e i v m 0.D.C.b.b.H.C.x.c.m.B.H.m.( m.c.( ",
"J c.[ [ _ ( c.C.H.b.c.c.b.m.m.H.[ 3 z m X.%. .y c J 7 - i i - , , , , p m H , + c z i p 8 A U =.m.D.C.` H.L.K.B.B.b.C.m.[ N.[ J ",
"W [ ] [ ( _ b.b.m.b.` m.m.V.m.m.m.F , M e h j #. .u z c c o.d < A 7 z p w 8 i e q 0 * s + ! f.` m.C.K.m.b.C.I.K.C.b.C.b.c.b.[ J ",
"( N.[ _ [ N.c.( b.[ m.H.m.B.V.C.B.( < , ; M n G z b  .p p p p p v e i e p i d l Z + ; * J [ m.m.b.H.C.H.b.` K.m.K.H.m.b.m.[ [ W ",
"] [ c.c.V.b._ c.b.c.m.m.m.R m.C.C.m.] Z , 7 & ( ( , l & d h X.0 s h i z r ' V.o 4 , 7 ( ` T _ [ R C.m.b.b.J m.I.K.C.m.H.C.] ] ( ",
"W ] c.B.c.` b.m.c.( B.H.I.C.[ b.C.C.H.c.c % & x L 7 - ; * , o.d 7 i v e < L.v.. + Z ( ( ( ( H ( R c.m.b.[ S H.{.U.I.L.I.C.b.[ W ",
"( [ b.b.[ m.K.B.b.R [ V.U.I.[ m.C.C.C.L.i.~ F . * z * 1 A 1 =. .e =.J s T ( o , W [ m.I R [ D J _ C b.b.D ( H.'.!.U.H.I.L.C.b.R ",
"[ [ b.N.m.H.U.U.K.K.c.m.I.V.J R b.N.b.V.C.L.) A 6 7 s 7 H Y 5.3.X.2.I h H 1 7 G [ [ [ ~ b.` T ` ` b.b.C.T [ I.'.I.I.K.L.K.K.C.[ ",
"] ` [ c.V.Z.L.K.C.C.B.[ m.R J _ [ ( ( ( b.B.I ` ` 1 & 7 c H S >.;.L L d Z J _ _ ` ( ` ( [ [ [ [ [ V.b.m.` B.L.'.!.K.B.c.B.m.b.c.",
"( ( [ [ b.( b.b.` _ ` ( T J H J ( J F W J _ ( ` ( Z B Z f 7 M ^ f.( ! ( ' ( _ ( ( J ( ( R R ` T H ( ( _ b.[ [ V.c.R H H [ ( ] [ "
};
