/* XPM */
static char *result[] = {
/* columns rows colors chars-per-pixel */
"64 64 66 1 ",
"  c #0D0701",
". c #0D0B05",
"X c #120C03",
"o c #151105",
"O c #1A1404",
"+ c #16120C",
"@ c #19150D",
"# c #1D180D",
"$ c #171511",
"% c #1A1612",
"& c #171817",
"* c #1C1A14",
"= c #1E1D1B",
"- c #221B0D",
"; c #211D15",
": c #211E1B",
"> c #1C2415",
", c #1E231B",
"< c #1E2819",
"1 c #232017",
"2 c #282314",
"3 c #222815",
"4 c #23221D",
"5 c #29241C",
"6 c #232B1D",
"7 c #2D291F",
"8 c #25311C",
"9 c #1E1F21",
"0 c #251E22",
"q c #1F2120",
"w c #242524",
"e c #292724",
"r c #262A24",
"t c #2A2A26",
"y c #272728",
"u c #282629",
"i c #272828",
"p c #2B2C2C",
"a c #322E27",
"s c #312E2B",
"d c #2B3225",
"f c #2D3827",
"g c #2E312D",
"h c #2F392C",
"j c #31322E",
"k c #323A2C",
"l c #2E2F30",
"z c #302F31",
"x c #2F3030",
"c c #333433",
"v c #383737",
"b c #363935",
"n c #383A36",
"m c #363738",
"M c #39373A",
"N c #373838",
"B c #3A3B3B",
"V c #403F3E",
"C c #3E403F",
"Z c #3F3F40",
"A c #3F4040",
"S c #424343",
"D c #464748",
"F c #474849",
"G c #4A4A4B",
"H c #4F5050",
/* pixels */
"irgccicmmcgcppgxxcppxxpzlpii4O**==w=wtiuww444=*>*+wrtpgppdpwpipi",
"pprcciccbBmmmcchcpcmmBBczp4;4tuwwupilvBvmmmcpprrpw%=ytigcppippgg",
"cmcxxxlxcccxccpppxMvBBvp5%;ssiwy,rurippplpxcmcdhppp4*=ypcxgiqipx",
"pcppcxyiiyrrgccxmxpipit;2aptywppiixlpptuwupxmkxpryuij4@4xpwwwilp",
"iirpccpcxpppppcppyjjw;;pccpplxccccxplcpuppxcbclptyuupppe%=plgyii",
"xphccgppxcgppyypics:#tauiuppcmzccmccclcmmcmmmmxxcpcmccxxa:%wccpx",
"lpgxxpxmbbjpiwwpj7#epsccmpzccmccBmvBmZSSABBmccBBBBBSBNxlpiw;+txx",
"eetttjsjjttppalq#;wsipmmmcllmmcmmmmBmcmZBBABBxcmcmBSSApcccptw*1t",
";::4:4:::44ee4;X2tpzpiccmvmcczcccvvvcmNADDADABBvcbvBvcbvvppt54+X",
"xpmvvmbmmmmMcvmvwO2splsicmmmsscscvBBBBZGAADFAASBcBmcpjBvvct5-O4a",
"mcmBSZZAZZcicxivDBt;5tppxcpxxcppssmBZBBBNAZcBBvmbccmbmjcca1@4pcm",
"BcmvBSSSSSBBvvmmvBBvw@;ppppcxlpuetcmccmAAmNcccxxlddcccpp2#4pmmcm",
"cjjjBBSGFSBSBBBmpipvmc=@;tzppplppppcplxmmcxpipirypxpmt1;4jcjllcc",
"uttgamSSZBmvBmmvccgppplw&*4tspppppllppxpixxyrpipppgg5;4tgppaisgt",
"zptplmcvMmmmccccjtpspccpuy*@;udggrrdplppxcxprywrd6<#:tptejjjatda",
"prwjmlcmcxcclcbckfpffvvccmjp,%:te664riwipitptt6<>*>rew4>rfaate7t",
"tipccccvcsscptsttt7ddcccclgie; +*1:=4:=4::4===**X*yww33><66t67dp",
"gppipipmvvjea7ettapaacjuwyw;-*yuippcvbmxmjpxjbrhs:o*rw*><9rr6drr",
"rtppiupjcckttajzurtppppsy*#%wliipgcBvBcippmmvvxcbvp**=9&>,w<3rw,",
"prrpppppgkag7t6wtyppyisw%+wcspmmcmCBBvBNSDDGSCmhbbcg,*+*4w,qyiii",
"rr<w6rpurpd8dpzppiippu=+ypgippxcccmmBBZFDSSGGFBBbddppgi;@=yuwrrw",
"6<<>*wyyrpw6w6iptpiu*@wpxppcxtpcmmBZABcMvmvDHGvBAcbxxixpt#@:iw<<",
"<6,>>rppdrw<,9=wli;%wpzppmccpcmcmmmBBBmNvBbcBcmBAmpxxxlpcpt*%:w<",
",wq=wwwwuppwq=wue*4uspppxgpgBvbmmZAAAZAGFSDFSBSZZmcxxccxlcptw*%4",
"%%&%*=%:==:%%%=%X4iipiiupxpmmvvkcmZZAFGGGGGGGDSBmCCccmciipirp0X+",
"xcMBmBBZBBvmMcplt;4titipplppmmmcCvmBmSFFGDCBSDDSCSCnvMppppy4:;ep",
"cBZSAAASFSDGDSZBmc4%:uiipzcpxgcmmccccBZSSDSmvmBBvBBBvvgiiw@@5ppj",
"cmmmBBBBBSZBBAAZMvvs4%*wiirpppxprpmBvvmZDBbcpgjpgcpgcci=**ezcipm",
"mvBBCAACDSBAZBZBBSbppi4*4yyripuuippvZSBbBbxcjprippdiyw*#4pccpxmb",
"bvBAASDGFABBBBcmBBmccppr=%:ipyripppplcvgppxxpeurwrww%@4uyyippvvB",
"vBCABBSGFSBMBBmZAmmcmcuppe=@=wwwwwyipplgluyiywr,*=$+=ww,wwppgmvB",
"BSSvBBBSSDDAABBBvcxppplpiiy:$+$%$*==&:,w4:4=::*&$+4wuwwwwypcpcmB",
"bcbBBbBBSSDCmBbhp6,wricptyiy:+%*&=44wwe4=:w===$&+.wuipgirrwippxm",
"xcbmBBCBvSBbBcpppyiyppityuw@*=4&wyupzvccxppclpdip,.&yir6iuw<wrpx",
"pgcmbBBSvmmmhiwuplxpuppu4#@:t4ww>wwpcpiplllpppddypp=.&wigxpw6wii",
"yuppxgpccggipippppccmmt;*w9wwwppppzpczpipgxcsggpiypci*+:gdw,qyur",
"qrrrpppxpcirpuwipcZZg=@=euwiscMvmmczzmcplmBBmbmmppilpiy=+=ipi9yw",
",qq,9ppppiiiw,qicBv:O=4w:wipcvcccBBmcpcmmBvBCBmBvccccipit:;wcpwq",
"w,qw,wiuwwyww0yjj4O:wwqulpclipjcmmBmmmvBBBBSZmBmBNmmmcpuue41@4pr",
"4w444:,*44w445p:O:eyyyicmccplcacMmvBmcmBABSSvxpllmBBccpppppuw**w",
"**::4444,w4ue5*o2uiuiiccMmxlxccjcBASZBSSGGGDAAZmBNBNbcppspiat4o ",
"cpzmvBVSAABBmmmi:-2ewyiuxgcccmpimCAADSASSSFSSGGZZBmxppgccct7-#ep",
"mmBZVSDGHHABAvmcmi:@;wyru9imciwxvBvvBBBvmcxmZSZmBvxuwytuie;@tcvm",
"BSBAASSGFFFSSBvBmjcp4#;ww9=iipxcccpccmmBZmcBvccpckhiqwjt1;4jmcBB",
"SSZBZABDSABBBBBBccccpiw@;4y,yuiripxcccmvmccglpwuggfitt1=wippcVSD",
"SZBBvBBZSZmABBBBcvcssipu=%;46qwywwpppwpmcpipdiwrdgjp5;esjtccvBnV",
"mBABABvSANNBZBBvmjtcpcjipt=@%:=4qww9qyitipwtptytr43*epprwpbbcbbb",
"vBSBvBCvvBNxbmbvvftffcpppipy=+*=,<6r9wwwww4wiw6>*;4tiipr6pcbnnbm",
"nBvmvCvmmmBNxNNbftddrpipcipiw;X@*==:e44w4w=**=$& 1tridderpgcbcgc",
"bccmmmvccBBNbhxggppgpiiiiru2-*wwwyypcmBvmlxiyxhnc,o=yw>6dipppccb",
"cjhzpccccNBNbbxxghuwruwtt:-;wpwwwruccvBciuxxpppgcVc:@=qq6rppdgcx",
"pccpppccbkkhhpdxliw=wxpy**yppqypicmmAZAvmvvvbbxgcnBBp+%=qyiglpip",
"grrr6pcskbd88rwppy9wip4;upp9uplllccvVBvBclzlxcmbnbhxNlw%*4iiiiph",
"xd>>*:4wgxq<qqqqruiu*@wiitplccmmmmSDDSZmcllcNccmbnbBBxxp4**4uipp",
"dr>>**wwrr,<q&&=py*+:wwpipcccxcppmvBBDABABBAZmmBxxpccllppu4%*wwy",
"wqwqqqwwqilq&=qpw@:wwwyipccMcmcxBZBBSDDGDFGDBBBBbxpmNbxxsw4u:@*w",
"&$%&$*$***=*%%*+ 4w9w9wypcmccmbBBmZASSFGHGGGGSABvmvBSBcicpyyu:X$",
"lzcxclxcxxxlccxca@@:wwiipxxlxxxxbBNZAFFFGHGGGGSSZBBvmmctlpw:O*wu",
"zBZZAZCBAANZSGBBBVpO%=yiplxlliupccmmmZZSASGSBmBmmmmcgipcpw@@4piz",
"upcMZBmCBBNNBmBSSGSpe%@4iiiccxpiplxccmcZAACBmgpcxxggpcpy%*eppppp",
"pimvBAABBBNmvBBBAAMmvc=+*wwyywwyipppmccccxpwppxxpqigpw=O:tipcccp",
"scmZABAAABNBmmBBmcmmppyw=+*=wqwwiiiywppii=wwwpxpwwwr:@;wwupccmmp",
"pcmvxxBZBBBBcccmmclipprwwy*+&=,==qw9wyirwwiwqqw=>,$+,ywruipppmBv",
"pdcccbmBmcxcxppipmmmmcxpiiu=++*$*==*=w4=:w4====%%+=rpwyiixpcccmi"
};
