/* XPM */
static char *result[] = {
/* columns rows colors chars-per-pixel */
"64 64 242 2 ",
"   c #0F0209",
".  c #250102",
"X  c #320000",
"o  c #3C0000",
"O  c #2C1A12",
"+  c #3A2417",
"@  c #3D2C1C",
"#  c #3C2E21",
"$  c #440000",
"%  c #4C0000",
"&  c #520000",
"*  c #5C0101",
"=  c #5C1710",
"-  c #640101",
";  c #6B0101",
":  c #740101",
">  c #7C0202",
",  c #770C07",
"<  c #691B10",
"1  c #791E14",
"2  c #472618",
"3  c #442C1C",
"4  c #4A2D1C",
"5  c #57291A",
"6  c #542D1C",
"7  c #44301F",
"8  c #4B311F",
"9  c #54311E",
"0  c #5B311F",
"q  c #692719",
"w  c #7C2A1C",
"e  c #68341D",
"r  c #77301E",
"t  c #4F2C21",
"y  c #552F20",
"u  c #463321",
"i  c #4D3522",
"p  c #4E3925",
"a  c #473D2B",
"s  c #533522",
"d  c #5B3422",
"f  c #533A26",
"g  c #5B3B25",
"h  c #5B3729",
"j  c #553D29",
"k  c #5B3E29",
"l  c #623522",
"z  c #6D3322",
"x  c #633B25",
"c  c #6B3C25",
"v  c #633E29",
"b  c #6A3F29",
"n  c #743C25",
"m  c #7F3D25",
"M  c #733F28",
"N  c #574129",
"B  c #5C422C",
"V  c #5F492D",
"C  c #574635",
"Z  c #5E4530",
"A  c #524D36",
"S  c #5D4933",
"D  c #644327",
"F  c #6B4126",
"G  c #63442B",
"H  c #6B432B",
"J  c #65492E",
"K  c #6C4A2E",
"L  c #734127",
"P  c #7D4126",
"I  c #73432B",
"U  c #7B452A",
"Y  c #744B2E",
"T  c #7B4B2D",
"R  c #7A542F",
"E  c #644431",
"W  c #6A4632",
"Q  c #654A32",
"!  c #6B4D32",
"~  c #754330",
"^  c #734D32",
"/  c #7A4C32",
"(  c #6D5135",
")  c #6D5338",
"_  c #6E583D",
"`  c #735334",
"'  c #7B5333",
"]  c #745835",
"[  c #7D5936",
"{  c #73553A",
"}  c #7D5338",
"|  c #765A3A",
" . c #7C5B3B",
".. c #7A603D",
"X. c #785E42",
"o. c #7E6243",
"O. c #7B6649",
"+. c #840202",
"@. c #8C0202",
"#. c #880B0B",
"$. c #940202",
"%. c #9B0303",
"&. c #950B09",
"*. c #990B08",
"=. c #85150B",
"-. c #95130B",
";. c #981610",
":. c #A30303",
">. c #AB0303",
",. c #A30F06",
"<. c #A50A0A",
"1. c #AC0909",
"2. c #B30303",
"3. c #BB0303",
"4. c #BB0A05",
"5. c #B40A0A",
"6. c #BB0B0B",
"7. c #A4180D",
"8. c #BB160A",
"9. c #A51717",
"0. c #B41414",
"q. c #BB1313",
"w. c #BB1E12",
"e. c #892819",
"r. c #992416",
"t. c #8A321F",
"y. c #93301E",
"u. c #AA2619",
"i. c #BA2519",
"p. c #A8321F",
"a. c #873825",
"s. c #963824",
"d. c #A62020",
"f. c #BC2727",
"g. c #A23A25",
"h. c #A73925",
"j. c #B63B24",
"k. c #C40303",
"l. c #CC0303",
"z. c #C00C05",
"x. c #C30B0B",
"c. c #CB0B0B",
"v. c #D30303",
"b. c #DC0302",
"n. c #D90A06",
"m. c #D20B0B",
"M. c #DB0D0C",
"N. c #C9140B",
"B. c #D6130F",
"V. c #C31313",
"C. c #CB1313",
"Z. c #C51C16",
"A. c #CB1C1C",
"S. c #D31414",
"D. c #DB1414",
"F. c #D91A12",
"G. c #D21B1B",
"H. c #DB1C1C",
"J. c #E30302",
"K. c #EA0303",
"L. c #E60B0B",
"P. c #F2150F",
"I. c #E41716",
"U. c #E11C1C",
"Y. c #C82617",
"T. c #C72626",
"R. c #CB2222",
"E. c #D32424",
"W. c #DB2323",
"Q. c #D72F2F",
"!. c #DC2A2A",
"~. c #C23A24",
"^. c #CA3434",
"/. c #DB3838",
"(. c #E32424",
"). c #E62826",
"_. c #E33232",
"`. c #E43C3C",
"'. c #EA3939",
"]. c #834226",
"[. c #884827",
"{. c #834629",
"}. c #824A2C",
"|. c #8A4C2B",
" X c #934729",
".X c #83532F",
"XX c #8C522E",
"oX c #93552E",
"OX c #9C562E",
"+X c #844C32",
"@X c #835533",
"#X c #8C5533",
"$X c #835A35",
"%X c #8A5C34",
"&X c #845539",
"*X c #845D3A",
"=X c #945D34",
"-X c #985C34",
";X c #B0492F",
":X c #A84D33",
">X c #A25D37",
",X c #8B6237",
"<X c #84623C",
"1X c #8B643B",
"2X c #956336",
"3X c #9B6235",
"4X c #936439",
"5X c #986839",
"6X c #9B6A3A",
"7X c #9B713C",
"8X c #A2602F",
"9X c #A36534",
"0X c #A96A34",
"qX c #A16C39",
"wX c #A6743A",
"eX c #AC7439",
"rX c #AD7C3C",
"tX c #B17739",
"yX c #E4423E",
"uX c #845E42",
"iX c #836441",
"pX c #896143",
"aX c #856946",
"sX c #8B6A43",
"dX c #8B6E4C",
"fX c #916E43",
"gX c #9A6D40",
"hX c #8D7348",
"jX c #997748",
"kX c #897554",
"lX c #947B54",
"zX c #957858",
"xX c #AA6A49",
"cX c #A47845",
"vX c #DE4646",
"bX c #E34242",
"nX c #E04D4E",
"mX c #E65656",
"MX c #B3813C",
"NX c #98855C",
"BX c #A78455",
"VX c #AE8F75",
/* pixels */
"@.% & 4.%.; 4.H.G.%.: %.: k.D.>.:.>.q.C.^.bXW.%.> x.:.> :.%.5.5.$.: : :.$.Z.<.> > $.: $.1.& : : 2.:.; %.: 6.M.1.@.3.%.+.- ; +.; ",
"; % $ >.>.- >.S.S.: > - - 3.3.%.@.@.q.1.& V.G.+.$.6.%.%.>.<.V.$.@.: - :.V./.$.> ; :.>.: - * : : x.+.: ; - 2.3.$.:.:.+.+.; > ; ; ",
"> * $ > x.@.@.c.c.> $.- : >.:.+.: %.x.&.9.1.2.$.:.2.c.x.<.<.Z.@.+.> : > V.R.; : - :.2.- ; * : +.6.+.@.- : >.>.> 0.&.> +.; +.> ; ",
"+.* % % C.:.: 2.6.%.@.: > :.1.> ; V.l.E./.> @.:.>.V._.S.>.0.T.+.@.: +.>.c.:.- - & *.V.; : - > @.>.:.@.: : :.>.@.T.@.+.> : +.> > ",
"% % $ $ 5.6.; >.:.$.%.$.> $.5.: $.q.@.A._.:.- 1.k.`.bX3.:.A.A.+.$.> $.3.C.<.: ; & &.5.+.; - +., > %.%.$.> @.>.:.c.@.@.#.+.> : ; ",
"% % $ $ *.0.> @.<.V.>.:.+.+.6.> 1.> > c.V.5.@.@.k.`.G.$.1.H.c.@.$.%.$.+.Z.&.* & > >.$.$.* : $.; > x.>.:.@.+.6.:.x.$.$.@.+.: : * ",
"$ % o $ : 2.$.- >.G.x.3.+.%.l.@.%.* >.> $ %.1.; 2.v.l.:.6.W.q.@.: > %.#.E.> $ , x.l.@.$.- +.@.; +.H.x.6.+.$.x.5.x.$.: : > ; - % ",
"% % $ $ % 4.$.@.c.C.6.5.$.$.5.%.> : @.$ % : &.: :.6.M.1.A.!.2.+.; ; %.R.^.: +.1.:.5.@.@.> $.> - & 1.x.5.$.$.2.x.x.@.; ; - ; % X ",
"% & % $ o 1.:.:.H.5.<.>.5.> :.:.: : * & % - : : > %.B.<.C.C.:.> : , > /.f.: , - % 2.$.@.+.> ; - $ % - $.6.: <.2.>.+.; ; - * % $ ",
"% % % $ % @.>.x.U.1.%.%.1.- %.%.: ; & & & - ; ; ; %.D.>.6.:.2.+.- - > vX9.* - +.*.S.@.+.+.: - ; & $ . > 5.- %.%.5.$.- - - * $ o ",
"- * % % $ +.x.v.v.:.@.@.%.> $.$.: ; & * * ; : ; * <.B.1.>.$.c.+.> - 9.W.@.* > @.x.S.+.@.@.- : - & % X > :.: $.@.x.%.: ; - * $ o ",
": : $ - * > l.l.k.:.> @.<.$.$.@.: - * * - ; : ; * >.3.>.$.@.>.> : ; q.G.: * > : 6.x.> $.@.- : - % $ X +.>.@.$.+.:.+.; ; - & $ o ",
"+.+.& ; > : x.2.>.:.: @.:.>.$.+.> * * - - ; : : : q.:.@.@.d.Q.> - ; :.>.; - : :.v.1.@.:.@.: ; * * $ o > >.:.%.=.Q.$.& ; ; * % $ ",
"$.+.& > > > 3.$.:.%.; %.2.6.$.+.> * - - ; : @.> > R.:.&.%.T._.%.: : > : > - ; $.:.@.$.>.:.> - - * % X $.>.6.@.d.`.:.- ; - * & o ",
"%.+.* @.: > :.> <.>.; 2.c.:.; %.+.- ; ; - > :.@.-.E.%.<.>.R.D.m.1.: ; @.+.- > @.> @.:.3.:.%.+.& * & o >.l.:.; 0.(.l.<.; ; * & $ ",
"$.> - $.: @.$.- :.%.: >.c.+.: %.+.: : > : +.2.@.;.R.:.5.$.C.6.C.0.+.: > ; ; > :.%.$.:.6.$.$.%.& - & - :.c.+.; 5.S.3.2.: +.- & & ",
"@.; : @.: &.> - <.> ; 1.2.:.@.%.@.+.@.+.> @.4.$.*.A.%.5.@.>.%.:.+.:.+.- - > > :.1.:.:.>.$.$.>.* - ; ; <.5.%.@.%.>.%.: @.@.; * - ",
"> ; - > +.$.; : :.: - 6.>.>.> $.@.@.%.%.+.@.x.%.@.c.$.:.6.3.+.+.: >.+.> ; +.@.%.>.3.%.$.:.>.6.; ; > - 6.>.:.@.2.@.> * %.$.> - : ",
"+.- - : +.@.> %.$.- * %.>.%.; $.$.$.:.1.@.+.3.:.+.2.$.+.3.l.@.: +.>.+.: ; > @.>.k.c.%.@.3.l.4.+.: : & %.2.%.- 2.%.: * :.$.> ; : ",
"$.; +.> +.: +.$.> ; - 2.5.> : $.:.:.:.%.$.+.>.:.+.$.%.$.2.>.+.> @.:.+.+.: : > k.D.n.%.> S.I.C.$.+.- * >.2.: : %.$.> : $.@.@.: : ",
": > > +.> * - : : ; #.x.+.: $.@.4.>.1.$.> +.%.:.$.:.:.:.:.:.> +.@.$.$.+.; : +.l.`._.>.@.Q.`.A.:.@.* #.6.@.- $.@.@.: > > %.$.> : ",
"+.: - +.: & - : : : 6.1.; +.%.+.x.k.6.$.> : %.:.>.>.5.5.$.$.> $.:.$.:.@.> : @.l.bXbX2.> f.`.C.>.&.% 5.5.; > %.+.+.> $.> :.%.@.; ",
"$.: - +.: % * ; > >.c.@.; +.$.> 6.l.D.5.$.+.>.2.R.6.6.R.+.@.: 2.m.:.%.+.@.> +.m.).!.2.; <.U.6.>.%.& x.$.; > @.@.+.$.m.$.:.$.$.: ",
"%.+.; +.: & - ; > :.1.; : $.@.> >.H.mXE.$.$.%.$.R.R.2.<.> +.> 5.U.l.:.$.> > > l.U.M.>.@.%.2.3.3.$.- 1.: ; +.+.$.+.@.U.x.>.:.+.: ",
":.$.$.@.; * ; - > %.@.* $.$.$.: :.!.mXW.@.> >.$.:.6.:.> +.> +.>.(.I.2.>.> > +.x.I.v.:.<.$.> c.3.$.: $.& @.+.@.@.@.+.G.U.k.2.+.; ",
"2.2.%.@.: - ; ; $.<.: +.> @.:.* %.D.I.S.+.: 3.:.%.+.@.+.@.> > :.K.).C.%.$.@.$.k.m.z.$.$.: @.m.3.:.> : +.> > %.+.@.: l.(.W.2.@.> ",
"2.@.:.@.: > @.; 6.:.@.@.; :.5.- $.l.b.l.: > 3.>.$.@.$.V.*.> @.$.v.I.U.$.:.>.3.2.3.2.+.: @.3.x.l.>.> @.@.; @.>.+.$.; >.L.U.3.$.%.",
"$.+.3.@.; ; : : c.%.$.+.+.2.3.; $.x.v.k.: %.l.>.: x.c.E.<.@.$.$.3.J.M.2.%.k.3.3.v.1.> > @.%.3.3.:.%.$.+.> :.2.@.$.: > l.L.v.:.3.",
"> %.l.%.@.; % +.x.%.2.$.&Xj.3.> $.k.l.>.; >.L.c.> q.x.$.>.:.$.:.>.v.l.2.%.l.k.2.:.@.: ; : @.2.>.>.%.>.%.%.>.>.%.%.+.; :.l.l.2.2.",
"@.2.v.:.@.- % %.5.k.w.n ) :Xk.> +.4.2.%.- : H._.:.$.1.x.2.:.@.>.2.3.7.e.:.n.l.2.%.: < n : $.2.2.:.2.k.%.2.>.V.:.:.> : > 2.k.3.:.",
">.l.v.:.> * ; :.2.>.t.H } >XC.> @.2.:.@.- ; >.'.Z.:.6.U.v.:.$.>.k.3.a.I e.b.M.8.>.: e |.1 %.k.3.>.>.$.%.+.6.c.>.>.> +.> :.3.3.:.",
"3.v.k.>.> * +.:.$.: z M } E d.@.#.$.@.@.- : 2.W.E.3.W.`.I.5.:.3.z.7.U {.x Z.F.h.:.* n |.l ;.k.4.2.$.+.$.:.l.3.3.2.$.@.:.>.k.k.3.",
"k.v.k.>.+.: : @.@.e.~ ^ / v c =.> @.+.+.- +.3.l.F.4.).nX_.6.>.l.a..X}.M c t.Y.a.>., |.].9 I r.k.3.> 1.5.:.v.v.2.3.>.@.6.k.l.l.3.",
"k.b.l.3.%.> %.:.%.y.v y uX/ v m +.%.@.@.: $.l.l.D.k.I.yXbXV.>.j.I T }.L U U ;XU 3.8.[.].U n ].k.k.:.4.@.$.D.c.3.3.2.%.>.L.l.v.l.",
"k.J.l.l.2.> >.%.&.l b y c ~ M c z :.%.: ; :.b.v.b.v.M.).).c.k.;XT c M {.|.oXe e 1 e.U {.}.[.m w.k.2.> ; 2.(.4.k.k.2.l.3.l.n.k.l.",
"l.J.v.b.>.>.$.w d d U d l b M l 4 &.$.> +.3.K.J.l.l.v.L.b.l.l.y.}.T U U }.oXe L 7 + ]. X[.].m e u.:.* T.(._.2.v.l.k.v.c.v.v.k.v.",
"l.b.J.l.3.%.- c y n M d v / M l d =.>.@.$.k.b.L.l.v.k.K.k.3.k.].XX}.T XXI U e U 5 2 [.|.[.].n 8 y.>.+.H.Y.w.3.v.l.v.l.>.x.3.l.b.",
"v.b.J.v.>.; < l c I c y v ~ c l d -.2.%.$.k.J.I.w.i.v.n.:.2.u.F }.I |.oXU XXF }.e 2 {.P ].n n 6 q %.$.:.q c k.l.k.l.c.+.$.k.l.b.",
"b.J.J.v.:.$.e.W b b c 5 W H z c 6 e.3.$.$.b.i.m p g.v.n.2.3.t.x T XXOXoX0 XX[.U c 2 |.n c n z 6 l ;.@.= 5 / s.w.l.l.c.:.3.b.l.b.",
"k.J.b.l.:.>.s.} 2 I I t F l I 0 l w l.%.@.L.a.Q Q g.J.k.2.N.P l L @XoX[.0 L oXU c 2 XXP c z x 5 I s.:.= v &XC :Xb.z.3.%.$.v.v.J.",
"k.J.v.l.2.3.s.*Xc T U h / b h 0 g r J.2.:.;X/ } p a.v.k.k.7.d c c I }.T l x -X|.0 2 }.{.c x c D b b *.M uX} b M c.v.%.@.+.l.v.b.",
"3.b.v.v.>.k.y.^ ' I H d H x x b e 0 e.v.4.cXuXy 6 I Y.>.b.g.u M }.c F 0 c g >XOX0 6 XX|.L l ].F } U n X.H h b B ~.k.$.>.%.l.J.v.",
"k.v.J.v.k.k./ &XI v H Y b x b F x 8 0 n.l.cX} t s i p.:.*.w 4 I {.c x 0 g x 8XOXd 0 -X|.U c Y 9 ~ #XI s l l d g >Xc.@.k.%.v.J.v.",
"v.b.b.b.i.,.+X#Xc d }.F x b H d H d q l.l.xXS y 4 9  Xl.w i 0 {.I g x F 0 x 9X8XF x XX[.L H H 9 I XX/ t ^ d 4 y } u.:.k.3.b.K.b.",
"k.v.b.b.;XY &X} d x T l x l l v #Xy #XxXr.+Xf 2 2 g .XZ.e.7 l T c g x d 9 v oX0XY L }.T x F I v I -X3Xh W d E y ' OX>.z.k.b.J.b.",
"3.v.J.b.s.{ / / d d 0 g v x *XgXE $XBX| G ^ d 2 2 6 H s.e.f 0 0 g g v x s x }.0XT }.' I x I H g I -X-XW k v W t Y @X3.l.v.v.K.b.",
"3.b.L.b.a.` uX^ 0 x g d g g fXBXv fX<X5 Y ' i 4 g g g + D x 0 g d f F k d g T 3XT H @XT k I v f H =X3Xv s E k h I U N.v.v.v.K.b.",
"k.J.J.v.+X^ X.^ 9 v x g d b $XjX^ ] g H g d 4 i f g 9 2 g g g x x d F v h d ^ %XR I / #Xv I x d ~ 3X9XH ^ E Q E c ! F.v.k.J.J.v.",
"b.h.a.a.W uX} v s d g g b T Y *X .sXF Y i d 4 3 2 d 6 8 D s s g g g I G G D / $X%X%X#X#XH G g v ^ 9X9X' G j i i &XS j.L.B.P.J.J.",
"s.H N E zX| { x f h f i g T T s ` pXY G 4 g s s ] s 2 Q F g d s x v @XY g F Y / $X3X3X$XF B H g W qXqX@XG k 4 k } / F Y.L.K.J.Y.",
"S ( E X.zXD Z g f g k d G I I g | fX .Q 9 ! g 3 k N Q E G 9 f g v D Y Y h D Y Y / 2X0X=XG t D g F 6X0X6X} ( uXZ g / B Y N.b.h.A ",
"E dX .E O.G 3 s 9 D K 4 Y T D v @X` ] j ! <X<Xj h iX| 3 p 9 9 9 D d K / j D K Y Y ' 3X' K f g 8 G 6XtXeXY E aXB j ' v K s.a.O.! ",
"W sXo.aXQ i f s i K H 4 H x ! [ R D [ j G ] <Xf N X.1Xu i j g 8 i 4 ' $Xj D T Y g H $XY ^ G G d ^ eXtXMXY ] S S D #XD H { i aX{ ",
"zXaX..f + p f f k ^ G f ` g i ..] J aXG ( fX^ N (  .] + j v f 8 i s Y R p H R T f H ' / ] K H B } 3XtXMXY ] p j D ,Xk Y g iX*XzX",
"zX{ p 3 3 f k f G &XR k $XD 8 B K o...hXB BX<Xf f B 3 + H B 8 f f g K Y N K Y $Xj D .X' J K K G $X4XrXMXR K O N sX,Xv ` h ) zXVX",
"_ 3 k i i N k p ! | ( H 5XD j K V aX<XhXN Q hX] + i i ( ` i 9 H g f ( B f H Y XXf G %X$XJ B ^ ^ @X3XeXMX%X[ . A BX5XK D t O.NXzX",
"i G B j i k j p K $X] K 5Xf f ' ..V <X} j 3 ( V + p N ) K i g G j 8 N f j B R .Xj B %X$X! Q K ! / 4XqX6X$X .. A hX7XV X.) Q f k ",
"j ^ B p i B N B ! *X[ ( 7Xf K 4XaXN sX..f S sXJ O p u K J 7 f 8 f f f f D B R %Xj B ` ` N ^ ( E ' 2X%X*X[ *Xu # <X5XS kXS j N G ",
"B K p p f B N ! { [  .' rXj J 7X[ K ( | V ) o.! @ 7 @ K J @ 7 p N 7 J N G N %X3Xf k ] *XK } <XB K %X}  .] ,XG   ,X7XN N p j V B ",
"J N i p B G p Q *X` ( $XrXj Q N f ` ( Q Q p N | N p 7 J G i p p N p ( p V N <X5Xj V ` 5XJ ] 5XV K [ 4X*X) iXG a ..R p N j g j B ",
"B j f p G N ! ! <X! V ,XeXN N p f [ G S ( j G ` J u p B j D N 7 Q J J B V j $X6Xj B } ,XQ ' cX{ N ^ ,X*XuXdX` @ ! B j B Q G j Q ",
"N N j f V p  .` [ ! B 4XqXu V B j ^ f B | Q ` ] K 7 p N k ! D 7 j | Q N B k %XqXB V [ $X( | wX1X{ ] `  .aXdX_ @ { ` p B B J B V ",
"N f N V N f ( ) ! ! V 5X5X# B S j ` G G ] | J K ` 7 p B V Q j 7 hX| s N J f ,XeXG B R ' ( 1XrXfXiXiX(  .dXlXO.j ! ! j V f ] ! j ",
"N j G N Q J ( | p Q N 5X$Xu p i f ` ! B )  .N p Q i J ! ` | N j NXlXV ( Q J $XwX` f ] } Q ,XrX7XuXiXiXsXlXzXdX{ Q S G V B | Q J "
};
